<?xml version="1.0" encoding="utf-8"?>
<!-- Generator: Adobe Illustrator 16.0.0, SVG Export Plug-In . SVG Version: 6.00 Build 0)  -->
<!DOCTYPE svg PUBLIC "-//W3C//DTD SVG 1.1//EN" "http://www.w3.org/Graphics/SVG/1.1/DTD/svg11.dtd">
<svg version="1.1" id="Livello_1" xmlns="http://www.w3.org/2000/svg" xmlns:xlink="http://www.w3.org/1999/xlink" x="0px" y="0px"
	 width="230px" height="130.112px" viewBox="0 0 230 130.112" enable-background="new 0 0 230 130.112" xml:space="preserve">
<g>
	<g>
		<g>
			<path fill="#222720" d="M75.476,60.41l-2.648,11.282c-0.078,0.298-0.115,0.556-0.111,0.771c0.005,0.247,0.065,0.431,0.181,0.552
				c0.115,0.121,0.265,0.179,0.453,0.173c0.356-0.008,0.77-0.236,1.243-0.69c0.783-0.755,1.533-1.808,2.254-3.157l0.792,0.428
				c-0.677,1.54-1.503,2.729-2.472,3.567c-0.969,0.836-1.85,1.263-2.642,1.282c-0.528,0.01-0.984-0.183-1.365-0.582
				c-0.381-0.398-0.578-0.929-0.592-1.59c-0.014-0.652,0.065-1.344,0.243-2.077l1.783-7.39c0.034-0.125,0.051-0.246,0.048-0.361
				c-0.005-0.258-0.12-0.458-0.344-0.597c-0.301-0.184-0.749-0.27-1.342-0.256l-0.907,0.02l0.266-0.998L75.476,60.41z
				 M75.363,52.918c0.441-0.011,0.813,0.138,1.118,0.443c0.303,0.304,0.46,0.686,0.471,1.146c0.01,0.45-0.129,0.83-0.42,1.139
				c-0.29,0.308-0.652,0.467-1.083,0.478c-0.45,0.009-0.835-0.135-1.153-0.435c-0.318-0.3-0.482-0.674-0.493-1.126
				c-0.01-0.459,0.135-0.847,0.435-1.161C74.538,53.09,74.913,52.93,75.363,52.918z"/>
			<path fill="#222720" d="M86.278,55.78l2.34-0.052L87.462,60.4l2.604-0.059l-0.338,1.216l-2.529,0.058l-2.147,8.903
				c-0.121,0.505-0.179,0.947-0.168,1.323c0.006,0.357,0.088,0.627,0.242,0.808c0.155,0.181,0.346,0.268,0.572,0.262
				c0.969-0.021,2.126-1.289,3.474-3.803l0.801,0.428c-1.564,3.162-3.271,4.763-5.121,4.805c-0.688,0.014-1.238-0.187-1.642-0.604
				c-0.407-0.417-0.617-0.967-0.634-1.646c-0.012-0.585,0.06-1.201,0.215-1.85l2.068-8.573l-2.428,0.055l0.329-1.216l2.391-0.054
				L86.278,55.78z"/>
			<path fill="#222720" d="M103.468,71.246c-0.553,0.895-1.206,1.576-1.953,2.043c-0.748,0.467-1.49,0.709-2.227,0.725
				c-1.428,0.034-2.648-0.46-3.659-1.477c-1.011-1.018-1.533-2.329-1.569-3.928c-0.034-1.456,0.321-2.892,1.062-4.303
				c0.738-1.413,1.704-2.532,2.893-3.358c1.19-0.829,2.354-1.255,3.494-1.28c0.92-0.022,1.738,0.231,2.455,0.756
				c0.718,0.526,1.211,1.231,1.479,2.117l0.777-2.564l2.25-0.309l-2.901,11.027c-0.08,0.298-0.116,0.598-0.109,0.894
				c0.006,0.269,0.066,0.473,0.18,0.615c0.114,0.141,0.247,0.21,0.399,0.208c0.288-0.008,0.61-0.211,0.967-0.613
				c0.691-0.771,1.334-1.803,1.929-3.092l0.841,0.355c-1.434,3.178-2.939,4.784-4.511,4.819c-0.509,0.012-0.936-0.173-1.279-0.555
				c-0.344-0.379-0.523-0.876-0.537-1.49L103.468,71.246z M101.721,60.799c-0.757,0.016-1.513,0.338-2.271,0.964
				c-0.758,0.626-1.415,1.656-1.974,3.087c-0.557,1.432-0.816,2.9-0.784,4.404c0.028,1.19,0.291,2.063,0.792,2.622
				c0.502,0.56,1.203,0.829,2.105,0.809c0.805-0.019,1.547-0.317,2.231-0.899c0.682-0.581,1.346-1.705,1.988-3.374
				c0.645-1.668,0.951-3.145,0.917-4.429c-0.021-0.921-0.329-1.687-0.928-2.296C103.2,61.077,102.506,60.779,101.721,60.799z"/>
			<path fill="#222720" d="M115.826,51.936l5.311-0.378l-4.485,18.537c-0.17,0.633-0.249,1.089-0.243,1.374
				c0.007,0.274,0.06,0.475,0.158,0.6c0.098,0.124,0.229,0.185,0.389,0.181c0.83-0.018,1.915-1.284,3.251-3.799l0.811,0.414
				c-1.525,3.143-3.114,4.73-4.77,4.77c-0.587,0.012-1.064-0.174-1.437-0.56c-0.371-0.383-0.565-0.926-0.579-1.626
				c-0.012-0.535,0.098-1.301,0.334-2.293l3.612-14.955c0.042-0.196,0.063-0.346,0.062-0.453c-0.006-0.233-0.115-0.41-0.328-0.532
				c-0.283-0.157-0.725-0.231-1.329-0.216l-1.034,0.023L115.826,51.936z"/>
			<path fill="#222720" d="M131.191,59.155l-2.646,11.284c-0.078,0.297-0.116,0.553-0.111,0.771
				c0.006,0.247,0.065,0.429,0.181,0.549c0.113,0.12,0.267,0.179,0.453,0.175c0.355-0.008,0.771-0.237,1.243-0.69
				c0.782-0.755,1.534-1.808,2.253-3.157l0.796,0.428c-0.681,1.541-1.505,2.729-2.475,3.565c-0.969,0.837-1.851,1.264-2.643,1.284
				c-0.527,0.01-0.982-0.183-1.362-0.582c-0.382-0.399-0.579-0.929-0.594-1.59c-0.014-0.652,0.067-1.345,0.243-2.078l1.782-7.39
				c0.036-0.125,0.052-0.245,0.049-0.36c-0.005-0.26-0.12-0.458-0.346-0.596c-0.3-0.185-0.748-0.271-1.341-0.258l-0.906,0.021
				l0.265-1L131.191,59.155z M131.081,51.665c0.44-0.009,0.813,0.138,1.117,0.442c0.305,0.305,0.461,0.688,0.472,1.148
				c0.01,0.45-0.13,0.83-0.421,1.139c-0.29,0.308-0.649,0.467-1.082,0.476c-0.449,0.012-0.834-0.134-1.153-0.434
				c-0.318-0.299-0.482-0.674-0.493-1.125c-0.011-0.46,0.136-0.847,0.435-1.161C130.255,51.837,130.629,51.675,131.081,51.665z"/>
			<path fill="#222720" d="M146.611,70.275c-0.555,0.895-1.206,1.575-1.953,2.043c-0.748,0.468-1.49,0.708-2.227,0.727
				c-1.429,0.031-2.649-0.462-3.661-1.479c-1.011-1.016-1.532-2.327-1.567-3.926c-0.034-1.458,0.319-2.894,1.061-4.304
				c0.739-1.413,1.705-2.532,2.894-3.359c1.189-0.828,2.355-1.253,3.496-1.28c0.919-0.021,1.737,0.231,2.455,0.757
				c0.715,0.527,1.208,1.231,1.478,2.119l0.776-2.565l2.252-0.309l-2.901,11.026c-0.078,0.3-0.115,0.599-0.108,0.895
				c0.006,0.267,0.065,0.472,0.18,0.613c0.112,0.143,0.245,0.211,0.398,0.209c0.288-0.009,0.608-0.211,0.965-0.612
				c0.691-0.773,1.336-1.806,1.931-3.094l0.843,0.356c-1.437,3.177-2.939,4.784-4.513,4.819c-0.507,0.013-0.935-0.172-1.278-0.553
				c-0.346-0.381-0.524-0.878-0.538-1.491L146.611,70.275z M144.864,59.827c-0.758,0.018-1.515,0.338-2.271,0.964
				c-0.759,0.626-1.415,1.655-1.972,3.086c-0.561,1.433-0.819,2.901-0.786,4.407c0.026,1.188,0.29,2.061,0.794,2.62
				c0.499,0.561,1.202,0.83,2.103,0.81c0.805-0.018,1.55-0.317,2.23-0.899c0.683-0.581,1.347-1.706,1.991-3.375
				c0.643-1.668,0.948-3.144,0.914-4.429c-0.019-0.919-0.329-1.686-0.928-2.296C146.342,60.105,145.649,59.81,144.864,59.827z"/>
			<path fill="#222720" d="M162.504,58.452l-1.132,4.7c2.051-3.173,3.997-4.78,5.841-4.822c0.711-0.014,1.299,0.211,1.762,0.681
				c0.466,0.47,0.705,1.119,0.726,1.949c0.016,0.698-0.13,1.532-0.434,2.5l-1.149,4.89l-0.277,1.218
				c-0.051,0.28-0.077,0.509-0.072,0.69c0.005,0.209,0.066,0.385,0.19,0.527c0.121,0.142,0.264,0.211,0.423,0.208
				c0.429-0.011,0.971-0.339,1.625-0.985c0.656-0.648,1.234-1.615,1.735-2.902l0.936,0.282c-0.605,1.586-1.382,2.799-2.33,3.64
				c-0.947,0.843-1.839,1.272-2.678,1.292c-0.582,0.013-1.071-0.188-1.469-0.6c-0.399-0.412-0.607-0.951-0.623-1.611
				c-0.012-0.557,0.063-1.167,0.228-1.833l1.26-5.25c0.179-0.581,0.264-1.143,0.251-1.689c-0.011-0.459-0.119-0.82-0.328-1.085
				c-0.207-0.265-0.448-0.393-0.723-0.387c-0.623,0.016-1.61,0.742-2.962,2.183c-1.354,1.438-2.359,3.399-3.019,5.879l-0.885,4.32
				l-2.347,0.167l2.712-11.251c0.046-0.173,0.063-0.342,0.062-0.505c-0.007-0.287-0.103-0.501-0.287-0.641
				c-0.255-0.177-0.605-0.259-1.057-0.25l-1.278,0.03l0.25-0.971L162.504,58.452z"/>
			<path fill="#222720" d="M183.818,57.814c1.479-0.034,2.742,0.487,3.798,1.562c1.056,1.075,1.601,2.455,1.639,4.142
				c0.033,1.457-0.302,2.876-1.002,4.259c-0.705,1.381-1.622,2.45-2.756,3.204c-1.133,0.754-2.319,1.146-3.556,1.174
				c-1.477,0.034-2.751-0.497-3.825-1.589c-1.074-1.093-1.63-2.48-1.67-4.156c-0.029-1.4,0.313-2.791,1.027-4.173
				c0.719-1.383,1.65-2.459,2.799-3.227C181.42,58.239,182.602,57.84,183.818,57.814z M183.898,58.79
				c-0.719,0.017-1.439,0.336-2.158,0.961c-0.717,0.626-1.356,1.706-1.911,3.244c-0.554,1.538-0.815,3.068-0.782,4.592
				c0.027,1.18,0.303,2.078,0.824,2.701c0.521,0.621,1.177,0.923,1.961,0.904c0.749-0.016,1.472-0.329,2.165-0.94
				c0.698-0.609,1.329-1.709,1.898-3.3c0.567-1.59,0.836-3.142,0.801-4.656c-0.023-1.124-0.3-1.991-0.828-2.608
				C185.341,59.073,184.685,58.773,183.898,58.79z"/>
		</g>
	</g>
	<g>
		<g>
			<path fill="#41873F" d="M97.614,38.955l-1.56-0.134l1.38-15.944l1.559,0.136L97.614,38.955z"/>
			<path fill="#41873F" d="M111.481,35.607c-0.121,1.396-0.657,2.496-1.611,3.296c-0.951,0.8-2.126,1.14-3.522,1.019
				c-0.218-0.019-0.417-0.06-0.602-0.122l0.143-1.629c0.164,0.093,0.362,0.149,0.596,0.168c0.914,0.08,1.696-0.15,2.345-0.689
				c0.648-0.538,1.012-1.264,1.091-2.18c0.066-0.745-0.157-1.53-0.663-2.355c-0.467-0.744-0.936-1.481-1.404-2.209
				c-0.5-0.919-0.706-1.867-0.623-2.845c0.118-1.35,0.65-2.401,1.598-3.156c0.949-0.754,2.107-1.072,3.473-0.954l-0.134,1.536
				c-0.899-0.078-1.667,0.13-2.305,0.622c-0.635,0.492-0.993,1.188-1.071,2.088c-0.062,0.698,0.163,1.467,0.668,2.308
				c0.467,0.745,0.942,1.489,1.426,2.234C111.369,33.674,111.566,34.629,111.481,35.607z"/>
			<path fill="#41873F" d="M127.092,27.039l-3.469-0.3l-1.245,14.362l-1.559-0.137l1.244-14.361l-3.446-0.297l0.137-1.583
				l8.475,0.734L127.092,27.039z"/>
			<path fill="#41873F" d="M134.901,42.184l-1.559-0.135l1.38-15.944l1.561,0.136L134.901,42.184z"/>
			<path fill="#41873F" d="M152.066,29.2l-3.469-0.299l-1.244,14.36l-1.561-0.134l1.244-14.361l-3.444-0.299l0.137-1.583
				l8.473,0.734L152.066,29.2z"/>
			<path fill="#41873F" d="M167.09,40.936c-0.103,1.164-0.604,2.122-1.503,2.872c-0.901,0.751-1.935,1.076-3.099,0.976
				c-1.165-0.101-2.122-0.599-2.871-1.491c-0.753-0.895-1.079-1.923-0.976-3.086l1.033-11.941l1.559,0.136l-1.032,11.922
				c-0.063,0.728,0.143,1.374,0.612,1.937c0.472,0.564,1.076,0.877,1.812,0.941c0.736,0.064,1.389-0.141,1.958-0.616
				c0.57-0.472,0.885-1.074,0.947-1.802l1.032-11.921l1.561,0.135L167.09,40.936z"/>
			<path fill="#41873F" d="M183.906,31.957l-3.468-0.299l-1.243,14.36l-1.561-0.135l1.243-14.362l-3.444-0.297l0.137-1.584
				l8.474,0.733L183.906,31.957z"/>
			<path fill="#41873F" d="M206.211,40.336c-0.198,2.28-1.18,4.163-2.94,5.644c-1.762,1.48-3.791,2.123-6.089,1.924
				c-2.296-0.2-4.181-1.179-5.654-2.94c-1.475-1.763-2.111-3.782-1.913-6.063c0.198-2.296,1.175-4.185,2.929-5.668
				c1.754-1.482,3.781-2.124,6.077-1.924c2.296,0.198,4.186,1.179,5.665,2.94C205.766,36.01,206.407,38.04,206.211,40.336z
				 M204.557,40.194c0.159-1.847-0.353-3.478-1.534-4.895c-1.184-1.416-2.697-2.203-4.545-2.362
				c-1.83-0.159-3.454,0.358-4.871,1.547c-1.417,1.191-2.203,2.711-2.364,4.557c-0.159,1.832,0.356,3.455,1.549,4.871
				c1.189,1.417,2.702,2.204,4.532,2.363c1.847,0.159,3.475-0.356,4.881-1.548C203.614,43.535,204.397,42.024,204.557,40.194z"/>
		</g>
	</g>
	<g>
		<path fill="#BE1E2D" d="M82.284,127.76c0,0-27.867-18.837-28.626-55.442C53.13,46.821,62.364,20.049,79.573,2.017l6.017,5.758
			C69.038,25.117,59.025,46.02,58.539,68.943C58.057,91.798,66.491,112.688,82.284,127.76z"/>
	</g>
	<polygon fill="#41873F" points="1.979,35.503 79.316,38.822 2.014,45.03 	"/>
	<circle fill="#222720" cx="14.4" cy="57.199" r="2.677"/>
	<circle fill="#222720" cx="27.661" cy="56.939" r="2.678"/>
	<circle fill="#222720" cx="40.593" cy="56.726" r="2.679"/>
	<circle fill="#222720" cx="14.447" cy="67.829" r="2.678"/>
	<circle fill="#222720" cx="27.708" cy="67.569" r="2.677"/>
	<circle fill="#222720" cx="40.64" cy="67.357" r="2.68"/>
	<path fill="#222720" d="M16.648,80.994c0.994-1.096,0.912-2.788-0.182-3.784c-1.096-0.994-2.792-0.912-3.786,0.185
		c-0.995,1.093-0.912,2.787,0.184,3.783C13.959,82.172,15.652,82.09,16.648,80.994z"/>
	<circle fill="#222720" cx="27.924" cy="78.933" r="2.678"/>
	<circle fill="#222720" cx="40.857" cy="78.722" r="2.679"/>
	<g>
		<g>
			<path fill="#D13239" d="M94.943,103.149c0.201,1.415-0.132,2.7-0.997,3.852c-0.868,1.153-2.008,1.83-3.425,2.031l-1.598,0.228
				L87.46,98.94l1.597-0.227c1.416-0.201,2.699,0.132,3.853,0.998C94.062,100.576,94.739,101.723,94.943,103.149z M93.933,103.292
				c-0.163-1.145-0.707-2.062-1.637-2.756c-0.928-0.693-1.965-0.958-3.104-0.797l-0.578,0.083l1.174,8.271l0.577-0.082
				c1.142-0.162,2.063-0.705,2.762-1.63C93.826,105.457,94.093,104.428,93.933,103.292z"/>
			<path fill="#D13239" d="M101.94,107.411l-1.01,0.145l-1.464-10.32l1.008-0.144L101.94,107.411z"/>
			<path fill="#D13239" d="M132.14,100.999c-1.376,1.832-3.204,2.909-5.488,3.234c-2.281,0.323-4.339-0.206-6.17-1.589
				c-1.834-1.385-2.91-3.211-3.232-5.478c-0.325-2.28,0.2-4.342,1.575-6.181s3.204-2.922,5.486-3.246
				c2.282-0.325,4.341,0.21,6.174,1.602l-0.973,1.294c-1.479-1.111-3.137-1.537-4.971-1.277c-1.821,0.26-3.286,1.128-4.397,2.608
				c-1.111,1.478-1.535,3.136-1.275,4.971c0.259,1.82,1.128,3.285,2.605,4.396c1.481,1.11,3.129,1.538,4.948,1.278
				c1.835-0.259,3.309-1.129,4.42-2.61L132.14,100.999z"/>
			<path fill="#D13239" d="M147.668,96.86c0.167,1.156-0.107,2.202-0.815,3.137c-0.71,0.933-1.643,1.482-2.799,1.647
				c-1.155,0.163-2.201-0.104-3.135-0.806c-0.934-0.701-1.482-1.631-1.646-2.788l-1.686-11.865l1.55-0.222l1.683,11.848
				c0.102,0.726,0.447,1.309,1.032,1.751c0.587,0.442,1.247,0.613,1.979,0.509c0.73-0.104,1.32-0.45,1.768-1.04
				c0.449-0.589,0.621-1.247,0.52-1.971l-1.685-11.848l1.551-0.219L147.668,96.86z"/>
			<path fill="#D13239" d="M164.356,98.549l-6.872,0.976l-2.248-15.846l1.55-0.219l2.027,14.271l5.32-0.755L164.356,98.549z"/>
			<path fill="#D13239" d="M176.302,82.293l-3.446,0.489l2.024,14.273l-1.549,0.219l-2.028-14.271l-3.422,0.485l-0.224-1.573
				l8.419-1.195L176.302,82.293z"/>
			<path fill="#D13239" d="M193.584,90.34c0.163,1.157-0.108,2.202-0.817,3.136c-0.709,0.935-1.642,1.484-2.8,1.649
				c-1.154,0.164-2.201-0.103-3.134-0.805c-0.934-0.702-1.481-1.63-1.647-2.788l-1.683-11.867l1.549-0.219l1.681,11.848
				c0.104,0.724,0.449,1.307,1.036,1.75c0.586,0.443,1.245,0.612,1.977,0.509s1.32-0.45,1.769-1.04
				c0.448-0.591,0.621-1.247,0.517-1.97l-1.682-11.849l1.549-0.219L193.584,90.34z"/>
			<path fill="#D13239" d="M211.434,91.865l-2.111,0.3l-5.063-4.262l0.691,4.882l-1.55,0.219l-2.25-15.843l2.429-0.346
				c1.511-0.214,2.878,0.141,4.104,1.064c1.224,0.924,1.943,2.145,2.159,3.662c0.183,1.283-0.058,2.487-0.717,3.608
				c-0.66,1.121-1.602,1.909-2.826,2.368L211.434,91.865z M208.289,81.729c-0.153-1.084-0.67-1.95-1.544-2.597
				c-0.875-0.651-1.855-0.899-2.941-0.744l-0.879,0.125l1.108,7.818l0.864-0.124c1.09-0.152,1.966-0.667,2.63-1.543
				C208.188,83.789,208.442,82.812,208.289,81.729z"/>
			<path fill="#D13239" d="M230,89.229l-1.683,0.239l-1.181-2.169l-7.436,1.057l-0.552,2.415l-1.686,0.24l3.95-17.221L230,89.229z
				 M226.431,86.078l-4.412-8.032l-2.028,8.945L226.431,86.078z"/>
		</g>
	</g>
</g>
<g>
</g>
<g>
</g>
<g>
</g>
<g>
</g>
<g>
</g>
<g>
</g>
</svg>
